<svg width="300" height="300" viewBox="0 0 300 300" fill="none" xmlns="http://www.w3.org/2000/svg">
<circle cx="150" cy="150" r="150" fill="white"/>
<path d="M26.4489 196L26.4489 101.455L58.3949 101.455C65.812 101.455 71.875 102.793 76.5838 105.471C81.3234 108.118 84.8319 111.703 87.1094 116.227C89.3868 120.751 90.5256 125.799 90.5256 131.369C90.5256 136.94 89.3868 142.003 87.1094 146.558C84.8627 151.112 81.3849 154.744 76.6761 157.452C71.9673 160.13 65.9351 161.469 58.5795 161.469H35.6818L35.6818 151.312H58.2102C63.2884 151.312 67.3662 150.435 70.4439 148.681C73.5215 146.927 75.7528 144.557 77.1378 141.572C78.5535 138.556 79.2614 135.155 79.2614 131.369C79.2614 127.584 78.5535 124.198 77.1378 121.213C75.7528 118.228 73.5062 115.889 70.3977 114.196C67.2893 112.473 63.1652 111.611 58.0256 111.611H37.8977L37.8977 196H26.4489ZM143.315 166.455H155.872L166.397 180.304L169.167 183.997L184.863 204.864H172.306L161.966 191.014L159.38 187.506L143.315 166.455ZM188.741 148.727C188.741 158.699 186.941 167.316 183.34 174.58C179.739 181.843 174.799 187.444 168.521 191.384C162.243 195.323 155.072 197.293 147.008 197.293C138.945 197.293 131.774 195.323 125.495 191.384C119.217 187.444 114.277 181.843 110.676 174.58C107.076 167.316 105.275 158.699 105.275 148.727C105.275 138.756 107.076 130.138 110.676 122.875C114.277 115.612 119.217 110.01 125.495 106.071C131.774 102.132 138.945 100.162 147.008 100.162C155.072 100.162 162.243 102.132 168.521 106.071C174.799 110.01 179.739 115.612 183.34 122.875C186.941 130.138 188.741 138.756 188.741 148.727ZM177.662 148.727C177.662 140.541 176.292 133.631 173.553 127.999C170.845 122.367 167.167 118.105 162.52 115.212C157.903 112.319 152.733 110.872 147.008 110.872C141.284 110.872 136.098 112.319 131.451 115.212C126.834 118.105 123.156 122.367 120.417 127.999C117.709 133.631 116.355 140.541 116.355 148.727C116.355 156.914 117.709 163.823 120.417 169.455C123.156 175.087 126.834 179.35 131.451 182.243C136.098 185.136 141.284 186.582 147.008 186.582C152.733 186.582 157.903 185.136 162.52 182.243C167.167 179.35 170.845 175.087 173.553 169.455C176.292 163.823 177.662 156.914 177.662 148.727ZM207.426 101.455L235.494 181.043H236.602L264.671 101.455H276.673L241.958 196H230.139L195.423 101.455H207.426Z" fill="black"/>
</svg>
